<svg xmlns="http://www.w3.org/2000/svg" version="1.1" xmlns:xlink="http://www.w3.org/1999/xlink" xmlns:svgjs="http://svgjs.dev/svgjs" width="1500" height="1500" viewBox="0 0 1500 1500"><g transform="matrix(1,0,0,1,-0.323615160350073,-0.3236151603499593)"><svg viewBox="0 0 343 343" data-background-color="#c8c8c8" preserveAspectRatio="xMidYMid meet" height="1500" width="1500" xmlns="http://www.w3.org/2000/svg" xmlns:xlink="http://www.w3.org/1999/xlink"><g id="tight-bounds" transform="matrix(1,0,0,1,0.0740000000000407,0.07400000000001228)"><svg viewBox="0 0 342.85155851775386 342.85155851775386" height="342.85155851775386" width="342.85155851775386"><g><svg></svg></g><g><svg viewBox="0 0 342.85155851775386 342.85155851775386" height="342.85155851775386" width="342.85155851775386"><g><path d="M0 171.426c0-94.676 76.75-171.426 171.426-171.426 94.676 0 171.426 76.75 171.426 171.426 0 94.676-76.75 171.426-171.426 171.426-94.676 0-171.426-76.75-171.426-171.426zM171.426 338.573c92.313 0 167.147-74.834 167.147-167.147 0-92.313-74.834-167.147-167.147-167.148-92.313 0-167.147 74.834-167.148 167.148 0 92.313 74.834 167.147 167.148 167.147z" data-fill-palette-color="tertiary" fill="#6b7280" stroke="transparent"></path><ellipse rx="164.56874808852186" ry="164.56874808852186" cx="171.42577925887693" cy="171.42577925887693" fill="#6b7280" stroke="transparent" stroke-width="0" fill-opacity="1" data-fill-palette-color="tertiary"></ellipse></g><g transform="matrix(1,0,0,1,64.84655864529837,128.18155237820957)"><svg viewBox="0 0 213.1584412271571 86.4884537613347" height="86.4884537613347" width="213.1584412271571"><g><svg viewBox="0 0 213.1584412271571 86.4884537613347" height="86.4884537613347" width="213.1584412271571"><g><svg viewBox="0 0 213.1584412271571 86.4884537613347" height="86.4884537613347" width="213.1584412271571"><g><svg viewBox="0 0 213.1584412271571 86.4884537613347" height="86.4884537613347" width="213.1584412271571"><g id="textblocktransform"><svg viewBox="0 0 213.1584412271571 86.4884537613347" height="86.4884537613347" width="213.1584412271571" id="textblock"><g><svg viewBox="0 0 213.1584412271571 47.44300518639999" height="47.44300518639999" width="213.1584412271571"><g transform="matrix(1,0,0,1,0,0)"><svg width="213.1584412271571" viewBox="3.3 -38.38 225.17 50.120000000000005" height="47.44300518639999" data-palette-color="#c8c8c8"><path d="M25.66-22.44L25.66-22.44Q26.56-23.54 28.45-24.57 30.35-25.61 33.79-25.61L33.79-25.61Q38.67-25.61 40.84-23.1 43.02-20.58 43.02-15.55L43.02-15.55 43.02-1.29Q43.02-0.56 42.71-0.28 42.41 0 41.67 0L41.67 0 36.65 0Q35.91 0 35.61-0.28 35.3-0.56 35.3-1.29L35.3-1.29 35.3-14.28Q35.3-17.02 34.3-18.2 33.3-19.38 31.3-19.38L31.3-19.38Q29.52-19.38 28.48-18.59 27.44-17.8 27-16.46L27-16.46 27-1.29Q27-0.56 26.7-0.28 26.39 0 25.66 0L25.66 0 20.63 0Q19.9 0 19.59-0.28 19.29-0.56 19.29-1.29L19.29-1.29 19.29-14.28Q19.29-16.94 18.19-18.16 17.09-19.38 15.31-19.38L15.31-19.38Q13.62-19.38 12.6-18.55 11.57-17.72 11.01-16.46L11.01-16.46 11.01-1.29Q11.01-0.56 10.71-0.28 10.4 0 9.67 0L9.67 0 4.64 0Q3.91 0 3.6-0.28 3.3-0.56 3.3-1.29L3.3-1.29 3.3-21.75Q3.3-22.34 3.54-22.66L3.54-22.66Q4.05-23.34 4.77-24.05 5.49-24.76 6.54-25.56L6.54-25.56Q6.86-25.81 7.15-25.81L7.15-25.81Q7.42-25.81 7.76-25.56L7.76-25.56Q8.79-24.76 9.52-24.02 10.25-23.29 10.82-22.51L10.82-22.51 10.94-22.51Q11.77-23.56 13.53-24.58 15.28-25.61 18.55-25.61L18.55-25.61Q21.68-25.61 23.19-24.67 24.71-23.73 25.66-22.44ZM50.39 11.74L50.39 11.74Q49.48 11.74 49.02 11.56 48.56 11.38 48.24 11.11L48.24 11.11Q47.6 10.5 46.87 9.4L46.87 9.4Q46.7 9.13 46.51 8.78 46.31 8.42 46.31 8.18L46.31 8.18Q46.31 7.91 46.43 7.69 46.56 7.47 46.73 7.28L46.73 7.28Q47.12 6.76 47.68 6.21 48.24 5.66 48.63 5.35L48.63 5.35Q48.9 5.13 49.07 5.07 49.24 5 49.36 5L49.36 5Q49.48 5 49.73 5.05 49.97 5.1 50.46 5.1L50.46 5.1Q52.15 5.1 53.98 4 55.81 2.91 57.59-0.12L57.59-0.12Q55.73-1.83 53.94-4.41 52.15-6.98 50.71-10 49.27-13.01 48.4-16.02 47.53-19.02 47.53-21.56L47.53-21.56Q47.53-22.09 47.8-22.41L47.8-22.41Q48.92-23.8 51-25.32L51-25.32Q51.36-25.56 51.66-25.56L51.66-25.56Q51.98-25.56 52.32-25.32L52.32-25.32Q53.44-24.51 54.21-23.8 54.98-23.1 55.52-22.41L55.52-22.41Q55.78-22.09 55.78-21.51L55.78-21.51 55.78-21.61Q55.78-19.68 56.25-17.53 56.71-15.38 57.52-13.34 58.32-11.3 59.32-9.66 60.32-8.01 61.4-7.03L61.4-7.03 61.52-7.03Q62.01-7.96 62.61-9.7 63.21-11.45 63.74-13.59 64.28-15.72 64.62-17.83 64.96-19.95 64.96-21.58L64.96-21.58 64.96-21.51Q64.96-22.09 65.21-22.41L65.21-22.41Q65.77-23.1 66.53-23.8 67.28-24.51 68.36-25.32L68.36-25.32Q68.7-25.56 68.99-25.56L68.99-25.56Q69.33-25.56 69.63-25.32L69.63-25.32Q70.73-24.51 71.48-23.8 72.24-23.1 72.78-22.41L72.78-22.41Q73.02-22.09 73.02-21.53L73.02-21.53Q73-19.31 72.17-15.73 71.34-12.16 69.75-7.98 68.16-3.81 65.89 0.2L65.89 0.2Q62.5 6.23 58.57 8.98 54.64 11.74 50.39 11.74ZM73.02-21.58L73.02-21.58 73.02-21.51 73.02-21.53Q73.02-21.56 73.02-21.58ZM47.53-21.51L47.53-21.58 47.53-21.56 47.53-21.51ZM85.79-1.83L80.68 0.51Q80.17 0.73 79.95 0.73L79.95 0.73Q79.73 0.73 79.49 0.56L79.49 0.56Q78.93 0.17 78.21-1.35 77.49-2.88 77.49-6.05L77.49-6.05 77.49-34.33Q77.49-34.91 77.73-35.23L77.73-35.23Q78.75-36.57 80.73-38.13L80.73-38.13Q81.07-38.38 81.34-38.38L81.34-38.38Q81.66-38.38 81.95-38.13L81.95-38.13Q83-37.33 83.72-36.62 84.44-35.91 84.96-35.23L84.96-35.23Q85.2-34.91 85.2-34.33L85.2-34.33 85.2-7.54Q85.2-5.93 85.47-4.8 85.74-3.66 86.1-2.98L86.1-2.98Q86.52-2.17 85.79-1.83L85.79-1.83ZM90.76-33.2L90.76-33.2Q90.76-33.52 90.96-33.76 91.15-34.01 91.47-34.4L91.47-34.4Q92.16-35.18 93.06-36.05 93.96-36.91 94.89-37.72L94.89-37.72Q95.48-38.18 95.77-38.18L95.77-38.18Q96.06-38.18 96.67-37.72L96.67-37.72Q98.65-36.01 100.04-34.4L100.04-34.4Q100.36-34.03 100.57-33.78 100.77-33.52 100.77-33.2L100.77-33.2Q100.77-32.89 100.57-32.64 100.36-32.4 100.02-31.98L100.02-31.98Q99.36-31.23 98.48-30.36 97.6-29.49 96.67-28.71L96.67-28.71Q96.33-28.42 96.14-28.33 95.94-28.25 95.77-28.25L95.77-28.25Q95.6-28.25 95.41-28.33 95.23-28.42 94.84-28.71L94.84-28.71Q93.86-29.49 93.01-30.36 92.16-31.23 91.47-32.03L91.47-32.03Q91.15-32.42 90.96-32.65 90.76-32.89 90.76-33.2ZM99.6-23.71L99.6-1.29Q99.6-0.56 99.3-0.28 98.99 0 98.26 0L98.26 0 93.23 0Q92.5 0 92.19-0.28 91.89-0.56 91.89-1.29L91.89-1.29 91.89-23.71Q91.89-24.44 92.19-24.72 92.5-25 93.23-25L93.23-25 98.26-25Q98.99-25 99.3-24.72 99.6-24.44 99.6-23.71L99.6-23.71ZM117.71 0.61L117.71 0.61Q114.57 0.61 112.42 0.15 110.27-0.32 108.8-1 107.34-1.68 106.24-2.37L106.24-2.37 106.24-34.33Q106.24-34.91 106.48-35.23L106.48-35.23Q107.51-36.57 109.49-38.13L109.49-38.13Q109.83-38.38 110.1-38.38L110.1-38.38Q110.41-38.38 110.71-38.13L110.71-38.13Q111.76-37.33 112.48-36.62 113.2-35.91 113.71-35.23L113.71-35.23Q113.95-34.91 113.95-34.33L113.95-34.33 113.95-22.49 114.05-22.49Q115.03-23.73 116.76-24.67 118.5-25.61 121.6-25.61L121.6-25.61Q125.06-25.61 127.31-24.01 129.56-22.41 130.65-19.62 131.75-16.82 131.75-13.21L131.75-13.21Q131.75-9.3 130.46-6.16 129.16-3.03 126.1-1.21 123.04 0.61 117.71 0.61ZM118.03-5.3L118.03-5.3Q120.86-5.3 122.35-7.19 123.84-9.08 123.84-12.6L123.84-12.6Q123.84-16.16 122.51-17.77 121.18-19.38 118.67-19.38L118.67-19.38Q116.64-19.38 115.58-18.55 114.52-17.72 113.95-16.46L113.95-16.46 113.95-6.37Q114.49-5.98 115.48-5.64 116.47-5.3 118.03-5.3ZM144.71-22.17L144.71-20.36 144.81-20.36Q146.64-25.44 151.4-25.44L151.4-25.44Q152.01-25.44 152.4-25.38 152.8-25.32 152.94-25.27L152.94-25.27Q153.31-25.15 153.31-24.71L153.31-24.71 153.31-18.82Q153.31-18.07 152.43-18.41L152.43-18.41Q152.14-18.53 151.59-18.66 151.04-18.8 150.06-18.8L150.06-18.8Q147.55-18.8 146.13-16.96 144.71-15.11 144.71-11.94L144.71-11.94 144.71-1.29Q144.71-0.56 144.41-0.28 144.1 0 143.37 0L143.37 0 138.34 0Q137.61 0 137.3-0.28 137-0.56 137-1.29L137-1.29 137-21.75Q137-22.34 137.24-22.66L137.24-22.66Q137.76-23.34 138.48-24.05 139.2-24.76 140.25-25.56L140.25-25.56Q140.44-25.71 140.64-25.76 140.83-25.81 140.98-25.81L140.98-25.81Q141.32-25.81 141.66-25.56L141.66-25.56Q143.69-23.97 144.49-22.85L144.49-22.85Q144.71-22.56 144.71-22.17L144.71-22.17ZM163.41 0.61L163.41 0.61Q159.82 0.61 157.71-1.4 155.6-3.42 155.6-6.96L155.6-6.96Q155.6-8.79 156.27-10.36 156.94-11.94 158.62-13.15 160.29-14.36 163.3-15.09 166.32-15.82 171.01-15.94L171.01-15.94Q171.01-18.16 169.89-19.14 168.78-20.12 166.56-20.12L166.56-20.12Q164.56-20.12 163.29-19.43 162.02-18.75 161.7-18.51L161.7-18.51Q161.36-18.21 160.87-18.29L160.87-18.29Q160.21-18.38 159.47-18.63 158.73-18.87 157.87-19.19L157.87-19.19Q157.75-19.24 157.6-19.35 157.46-19.46 157.43-19.68L157.43-19.68Q157.43-19.8 157.46-19.98 157.48-20.17 157.58-20.65L157.58-20.65Q157.68-21.14 157.87-21.86 158.07-22.58 158.24-22.97L158.24-22.97Q158.46-23.39 158.97-23.75L158.97-23.75Q159.38-24.1 161.48-24.85 163.58-25.61 167.56-25.61L167.56-25.61Q178.53-25.61 178.53-14.94L178.53-14.94 178.53-1.12Q178.53-0.66 178.27-0.33 178.01 0 177.4 0L177.4 0 173.74 0Q173.35 0 173.04-0.11 172.74-0.22 172.47-0.54L172.47-0.54 170.96-2.49 170.79-2.49Q169.66-0.85 167.77-0.12 165.88 0.61 163.41 0.61ZM166.1-5.05L166.1-5.05Q168.34-5.05 169.49-6.2 170.64-7.35 170.96-8.57L170.96-8.57 170.96-11.28Q167.56-11.28 165.87-10.75 164.17-10.23 163.61-9.39 163.05-8.54 163.05-7.57L163.05-7.57Q163.05-6.15 163.93-5.6 164.8-5.05 166.1-5.05ZM192.83-22.17L192.83-20.36 192.93-20.36Q194.76-25.44 199.52-25.44L199.52-25.44Q200.13-25.44 200.52-25.38 200.91-25.32 201.06-25.27L201.06-25.27Q201.42-25.15 201.42-24.71L201.42-24.71 201.42-18.82Q201.42-18.07 200.54-18.41L200.54-18.41Q200.25-18.53 199.7-18.66 199.15-18.8 198.18-18.8L198.18-18.8Q195.66-18.8 194.25-16.96 192.83-15.11 192.83-11.94L192.83-11.94 192.83-1.29Q192.83-0.56 192.52-0.28 192.22 0 191.49 0L191.49 0 186.46 0Q185.72 0 185.42-0.28 185.11-0.56 185.11-1.29L185.11-1.29 185.11-21.75Q185.11-22.34 185.36-22.66L185.36-22.66Q185.87-23.34 186.59-24.05 187.31-24.76 188.36-25.56L188.36-25.56Q188.56-25.71 188.75-25.76 188.95-25.81 189.09-25.81L189.09-25.81Q189.44-25.81 189.78-25.56L189.78-25.56Q191.8-23.97 192.61-22.85L192.61-22.85Q192.83-22.56 192.83-22.17L192.83-22.17ZM205.84 11.74L205.84 11.74Q204.94 11.74 204.47 11.56 204.01 11.38 203.69 11.11L203.69 11.11Q203.06 10.5 202.32 9.4L202.32 9.4Q202.15 9.13 201.96 8.78 201.76 8.42 201.76 8.18L201.76 8.18Q201.76 7.91 201.88 7.69 202.01 7.47 202.18 7.28L202.18 7.28Q202.57 6.76 203.13 6.21 203.69 5.66 204.08 5.35L204.08 5.35Q204.35 5.13 204.52 5.07 204.69 5 204.81 5L204.81 5Q204.94 5 205.18 5.05 205.42 5.1 205.91 5.1L205.91 5.1Q207.6 5.1 209.43 4 211.26 2.91 213.04-0.12L213.04-0.12Q211.19-1.83 209.39-4.41 207.6-6.98 206.16-10 204.72-13.01 203.85-16.02 202.98-19.02 202.98-21.56L202.98-21.56Q202.98-22.09 203.25-22.41L203.25-22.41Q204.37-23.8 206.45-25.32L206.45-25.32Q206.82-25.56 207.11-25.56L207.11-25.56Q207.43-25.56 207.77-25.32L207.77-25.32Q208.89-24.51 209.66-23.8 210.43-23.1 210.97-22.41L210.97-22.41Q211.23-22.09 211.23-21.51L211.23-21.51 211.23-21.61Q211.23-19.68 211.7-17.53 212.16-15.38 212.97-13.34 213.77-11.3 214.77-9.66 215.78-8.01 216.85-7.03L216.85-7.03 216.97-7.03Q217.46-7.96 218.06-9.7 218.66-11.45 219.19-13.59 219.73-15.72 220.07-17.83 220.41-19.95 220.41-21.58L220.41-21.58 220.41-21.51Q220.41-22.09 220.66-22.41L220.66-22.41Q221.22-23.1 221.98-23.8 222.73-24.51 223.81-25.32L223.81-25.32Q224.15-25.56 224.44-25.56L224.44-25.56Q224.78-25.56 225.08-25.32L225.08-25.32Q226.18-24.51 226.93-23.8 227.69-23.1 228.23-22.41L228.23-22.41Q228.47-22.09 228.47-21.53L228.47-21.53Q228.45-19.31 227.62-15.73 226.79-12.16 225.2-7.98 223.61-3.81 221.34 0.2L221.34 0.2Q217.95 6.23 214.02 8.98 210.09 11.74 205.84 11.74ZM228.47-21.58L228.47-21.58 228.47-21.51 228.47-21.53Q228.47-21.56 228.47-21.58ZM202.98-21.51L202.98-21.58 202.98-21.56 202.98-21.51Z" opacity="1" transform="matrix(1,0,0,1,0,0)" fill="#c8c8c8" class="wordmark-text-0" data-fill-palette-color="quaternary" id="text-0"></path></svg></g></svg></g><g transform="matrix(1,0,0,1,0,58.64316007878456)"><svg viewBox="0 0 213.1584412271571 27.845293682550135" height="27.845293682550135" width="213.1584412271571"><g transform="matrix(1,0,0,1,0,0)"><svg width="213.1584412271571" viewBox="0.49 -35.01 344.59 45.019999999999996" height="27.845293682550135" data-palette-color="#c8c8c8"><path d="M19.46 0L17.14-8.15 6.05-8.15 3.76 0 0.49 0 10.74-35.01 12.4-35.01 22.71 0 19.46 0ZM11.5-27.29L6.91-11.16 16.31-11.16 11.69-27.29 11.6-28.59 11.5-27.29ZM30.2 0L27.19 0 27.19-35.01 30.2-35.01 30.2 0ZM66.6-25L58.25 0 56.61 0 50.75-18.85 50.65-20.14 50.56-18.85 44.7 0 43.04 0 34.69-25 37.74-25 43.7-6.1 43.79-4.81 43.89-6.1 49.75-25 51.56-25 57.39-6.1 57.49-4.81 57.59-6.1 63.54-25 66.6-25ZM86.81 0L85.81 0 84.15-2.49Q83.12-1.15 81.58-0.33 80.05 0.49 78.22 0.49L78.22 0.49 77.46 0.49Q75.94 0.49 74.6-0.09 73.26-0.66 72.26-1.66 71.26-2.66 70.68-4 70.11-5.35 70.11-6.86L70.11-6.86 70.11-7.1Q70.11-8.62 70.68-9.96 71.26-11.3 72.26-12.3 73.26-13.31 74.6-13.88 75.94-14.45 77.46-14.45L77.46-14.45 83.81-14.45 83.81-18.31Q83.81-19.21 83.46-20.01 83.12-20.8 82.54-21.39 81.95-21.97 81.16-22.31 80.36-22.66 79.46-22.66L79.46-22.66 77.7-22.66Q76.8-22.66 76.01-22.31 75.21-21.97 74.63-21.39 74.04-20.8 73.7-20.01 73.36-19.21 73.36-18.31L73.36-18.31 73.36-17.41 70.35-17.9 70.35-18.14Q70.35-19.65 70.93-21 71.5-22.34 72.5-23.34 73.5-24.34 74.85-24.91 76.19-25.49 77.7-25.49L77.7-25.49 79.46-25.49Q80.97-25.49 82.32-24.91 83.66-24.34 84.66-23.34 85.66-22.34 86.24-21 86.81-19.65 86.81-18.14L86.81-18.14 86.81 0ZM83.81-6.69L83.81-12.11 77.46-12.11Q76.56-12.11 75.76-11.77 74.97-11.43 74.38-10.83 73.8-10.23 73.45-9.44 73.11-8.64 73.11-7.74L73.11-7.74 73.11-6.69Q73.11-5.79 73.45-4.99 73.8-4.2 74.38-3.61 74.97-3.03 75.76-2.69 76.56-2.34 77.46-2.34L77.46-2.34 79.46-2.34Q80.36-2.34 81.16-2.69 81.95-3.03 82.54-3.61 83.12-4.2 83.46-4.99 83.81-5.79 83.81-6.69L83.81-6.69ZM109.51-25L96.87 10.01 93.96 10.01 98.4-2.15 90.3-25 93.3-25 99.82-6.05 99.92-4.76 100.01-6.05 106.51-25 109.51-25ZM129.7-6.35L129.7-6.35Q129.7-4.83 129.09-3.58 128.48-2.32 127.43-1.42 126.38-0.51 125-0.01 123.62 0.49 122.11 0.49L122.11 0.49 120.1 0.49Q118.59 0.49 117.21-0.09 115.83-0.66 114.79-1.66 113.76-2.66 113.13-4 112.51-5.35 112.51-6.86L112.51-6.86 112.51-7.86 115.51-8.35 115.51-6.69Q115.51-5.79 115.89-4.99 116.27-4.2 116.91-3.61 117.54-3.03 118.37-2.69 119.2-2.34 120.1-2.34L120.1-2.34 122.11-2.34Q123.01-2.34 123.84-2.61 124.67-2.88 125.32-3.38 125.96-3.88 126.34-4.59 126.72-5.3 126.72-6.2L126.72-6.2Q126.72-7.54 126.13-8.4 125.55-9.25 124.58-9.83 123.62-10.4 122.39-10.78 121.15-11.16 119.86-11.54 118.57-11.91 117.33-12.4 116.1-12.89 115.14-13.68 114.17-14.48 113.59-15.67 113-16.87 113-18.65L113-18.65Q113-20.17 113.59-21.42 114.17-22.68 115.17-23.58 116.17-24.49 117.5-24.99 118.84-25.49 120.35-25.49L120.35-25.49 122.11-25.49Q123.62-25.49 124.96-24.91 126.31-24.34 127.31-23.34 128.31-22.34 128.88-21 129.46-19.65 129.46-18.14L129.46-18.14 129.46-18.04 126.45-17.55 126.45-18.31Q126.45-19.21 126.11-20.01 125.77-20.8 125.18-21.39 124.6-21.97 123.8-22.31 123.01-22.66 122.11-22.66L122.11-22.66 120.35-22.66Q119.45-22.66 118.65-22.39 117.86-22.12 117.27-21.62 116.69-21.12 116.34-20.41 116-19.7 116-18.8L116-18.8Q116-17.5 116.59-16.69 117.18-15.87 118.14-15.31 119.1-14.75 120.34-14.37 121.57-13.99 122.85-13.59 124.13-13.18 125.37-12.67 126.6-12.16 127.56-11.35 128.53-10.55 129.11-9.34 129.7-8.13 129.7-6.35ZM165.66 0L161.75 0 151.55-12.5 161.75-25 165.66-25 155.21-12.5 165.66 0ZM150.96 0L147.96 0 147.96-35.01 150.96-35.01 150.96 0ZM186.36-6.86L186.36-6.86Q186.36-5.35 185.78-4 185.21-2.66 184.21-1.66 183.21-0.66 181.86-0.09 180.52 0.49 179.01 0.49L179.01 0.49 177.01 0.49Q175.49 0.49 174.15-0.09 172.81-0.66 171.81-1.66 170.81-2.66 170.23-4 169.66-5.35 169.66-6.86L169.66-6.86 169.66-18.14Q169.66-19.65 170.23-21 170.81-22.34 171.81-23.34 172.81-24.34 174.15-24.91 175.49-25.49 177.01-25.49L177.01-25.49 179.01-25.49Q180.52-25.49 181.86-24.91 183.21-24.34 184.21-23.34 185.21-22.34 185.78-21 186.36-19.65 186.36-18.14L186.36-18.14 186.36-12.26 172.66-12.26 172.66-6.69Q172.66-5.79 173-4.99 173.34-4.2 173.93-3.61 174.52-3.03 175.31-2.69 176.1-2.34 177.01-2.34L177.01-2.34 179.01-2.34Q179.91-2.34 180.71-2.69 181.5-3.03 182.08-3.61 182.67-4.2 183.01-4.99 183.35-5.79 183.35-6.69L183.35-6.69 183.35-8.35 186.36-7.86 186.36-6.86ZM183.35-14.6L183.35-18.31Q183.35-19.21 183.01-20.01 182.67-20.8 182.08-21.39 181.5-21.97 180.71-22.31 179.91-22.66 179.01-22.66L179.01-22.66 177.01-22.66Q176.1-22.66 175.31-22.31 174.52-21.97 173.93-21.39 173.34-20.8 173-20.01 172.66-19.21 172.66-18.31L172.66-18.31 172.66-14.6 183.35-14.6ZM209.06-6.86L209.06-6.86Q209.06-5.35 208.49-4 207.91-2.66 206.91-1.66 205.91-0.66 204.57-0.09 203.22 0.49 201.71 0.49L201.71 0.49 199.71 0.49Q198.2 0.49 196.85-0.09 195.51-0.66 194.51-1.66 193.51-2.66 192.93-4 192.36-5.35 192.36-6.86L192.36-6.86 192.36-18.14Q192.36-19.65 192.93-21 193.51-22.34 194.51-23.34 195.51-24.34 196.85-24.91 198.2-25.49 199.71-25.49L199.71-25.49 201.71-25.49Q203.22-25.49 204.57-24.91 205.91-24.34 206.91-23.34 207.91-22.34 208.49-21 209.06-19.65 209.06-18.14L209.06-18.14 209.06-12.26 195.36-12.26 195.36-6.69Q195.36-5.79 195.71-4.99 196.05-4.2 196.63-3.61 197.22-3.03 198.01-2.69 198.81-2.34 199.71-2.34L199.71-2.34 201.71-2.34Q202.61-2.34 203.41-2.69 204.2-3.03 204.79-3.61 205.37-4.2 205.71-4.99 206.06-5.79 206.06-6.69L206.06-6.69 206.06-8.35 209.06-7.86 209.06-6.86ZM206.06-14.6L206.06-18.31Q206.06-19.21 205.71-20.01 205.37-20.8 204.79-21.39 204.2-21.97 203.41-22.31 202.61-22.66 201.71-22.66L201.71-22.66 199.71-22.66Q198.81-22.66 198.01-22.31 197.22-21.97 196.63-21.39 196.05-20.8 195.71-20.01 195.36-19.21 195.36-18.31L195.36-18.31 195.36-14.6 206.06-14.6ZM231.76-6.86L231.76-6.86Q231.76-5.35 231.19-4 230.61-2.66 229.61-1.66 228.61-0.66 227.27-0.09 225.93 0.49 224.41 0.49L224.41 0.49 223.66 0.49Q221.97 0.49 220.53-0.2 219.09-0.88 218.07-2.1L218.07-2.1 218.07 10.01 215.06 10.01 215.06-25 216.06-25 217.7-22.46Q218.73-23.85 220.28-24.67 221.83-25.49 223.66-25.49L223.66-25.49 224.41-25.49Q225.93-25.49 227.27-24.91 228.61-24.34 229.61-23.34 230.61-22.34 231.19-21 231.76-19.65 231.76-18.14L231.76-18.14 231.76-6.86ZM228.76-6.69L228.76-18.31Q228.76-19.21 228.42-20.01 228.08-20.8 227.49-21.39 226.9-21.97 226.11-22.31 225.32-22.66 224.41-22.66L224.41-22.66 222.41-22.66Q221.51-22.66 220.71-22.31 219.92-21.97 219.34-21.39 218.75-20.8 218.41-20.01 218.07-19.21 218.07-18.31L218.07-18.31 218.07-6.69Q218.07-5.79 218.41-4.99 218.75-4.2 219.34-3.61 219.92-3.03 220.71-2.69 221.51-2.34 222.41-2.34L222.41-2.34 224.41-2.34Q225.32-2.34 226.11-2.69 226.9-3.03 227.49-3.61 228.08-4.2 228.42-4.99 228.76-5.79 228.76-6.69L228.76-6.69ZM242.01-31.01L238.52-31.01 238.52-35.01 242.01-35.01 242.01-31.01ZM241.77 0L238.77 0 238.77-25 241.77-25 241.77 0ZM265.47 0L262.47 0 262.47-18.31Q262.47-19.21 262.13-20.01 261.79-20.8 261.2-21.39 260.61-21.97 259.82-22.31 259.03-22.66 258.12-22.66L258.12-22.66 256.12-22.66Q255.22-22.66 254.43-22.31 253.63-21.97 253.05-21.39 252.46-20.8 252.12-20.01 251.78-19.21 251.78-18.31L251.78-18.31 251.78 0 248.77 0 248.77-25 249.77-25 251.41-22.46Q252.44-23.85 253.99-24.67 255.54-25.49 257.37-25.49L257.37-25.49 258.12-25.49Q259.64-25.49 260.98-24.91 262.32-24.34 263.32-23.34 264.33-22.34 264.9-21 265.47-19.65 265.47-18.14L265.47-18.14 265.47 0ZM288.42 3.15L288.42 3.15Q288.42 4.66 287.85 5.93 287.27 7.2 286.27 8.11 285.27 9.01 283.93 9.51 282.58 10.01 281.07 10.01L281.07 10.01 279.83 10.01Q278.31 10.01 276.97 9.51 275.63 9.01 274.63 8.11 273.62 7.2 273.05 5.93 272.48 4.66 272.48 3.15L272.48 3.15 272.48 3.05Q272.48 1.59 273.01 0.37 273.55-0.85 274.48-1.76L274.48-1.76Q273.31-2.47 272.61-3.67 271.92-4.88 271.92-6.35L271.92-6.35Q271.92-7.67 272.48-8.8 273.04-9.94 274.02-10.64L274.02-10.64Q272.84-11.67 272.16-13.11 271.48-14.55 271.48-16.26L271.48-16.26 271.48-18.14Q271.48-19.65 272.05-21 272.62-22.34 273.62-23.34 274.63-24.34 275.97-24.91 277.31-25.49 278.82-25.49L278.82-25.49 280.07-25.49Q281.9-25.49 283.45-24.67 285-23.85 286.03-22.46L286.03-22.46 287.66-25 288.66-25 288.66-16.26Q288.66-14.75 288.09-13.4 287.52-12.06 286.52-11.06 285.51-10.06 284.17-9.48 282.83-8.91 281.32-8.91L281.32-8.91 276.97-8.91Q276.46-8.91 275.99-8.7 275.53-8.5 275.18-8.15 274.82-7.81 274.63-7.34 274.43-6.86 274.43-6.35L274.43-6.35Q274.43-5.83 274.63-5.37 274.82-4.91 275.18-4.55 275.53-4.2 275.99-4 276.46-3.81 276.97-3.81L276.97-3.81 281.07-3.81Q282.58-3.81 283.93-3.31 285.27-2.81 286.27-1.9 287.27-1 287.85 0.27 288.42 1.54 288.42 3.05L288.42 3.05 288.42 3.15ZM285.69-16.09L285.69-18.31Q285.69-19.21 285.34-20.01 285-20.8 284.4-21.39 283.81-21.97 283.01-22.31 282.22-22.66 281.32-22.66L281.32-22.66 278.82-22.66Q277.92-22.66 277.13-22.31 276.33-21.97 275.75-21.39 275.16-20.8 274.82-20.01 274.48-19.21 274.48-18.31L274.48-18.31 274.48-16.09Q274.48-15.19 274.82-14.39 275.16-13.6 275.75-13.01 276.33-12.43 277.13-12.08 277.92-11.74 278.82-11.74L278.82-11.74 281.32-11.74Q282.22-11.74 283.01-12.08 283.81-12.43 284.4-13.01 285-13.6 285.34-14.39 285.69-15.19 285.69-16.09L285.69-16.09ZM285.56 3.3L285.56 2.91Q285.56 2 285.22 1.28 284.88 0.56 284.29 0.07 283.71-0.42 282.91-0.68 282.12-0.95 281.22-0.95L281.22-0.95 279.68-0.95Q278.78-0.95 277.98-0.68 277.19-0.42 276.6 0.07 276.02 0.56 275.68 1.28 275.33 2 275.33 2.91L275.33 2.91 275.33 3.3Q275.33 4.2 275.68 4.91 276.02 5.62 276.6 6.12 277.19 6.62 277.98 6.88 278.78 7.15 279.68 7.15L279.68 7.15 281.22 7.15Q282.12 7.15 282.91 6.88 283.71 6.62 284.29 6.12 284.88 5.62 285.22 4.91 285.56 4.2 285.56 3.3L285.56 3.3ZM322.37 0L321.37 0 319.71-2.54Q318.69-1.15 317.15-0.33 315.61 0.49 313.78 0.49L313.78 0.49 313.02 0.49Q311.51 0.49 310.17-0.09 308.82-0.66 307.82-1.66 306.82-2.66 306.25-4 305.68-5.35 305.68-6.86L305.68-6.86 305.68-25 308.68-25 308.68-6.69Q308.68-5.79 309.02-4.99 309.36-4.2 309.95-3.61 310.53-3.03 311.33-2.69 312.12-2.34 313.02-2.34L313.02-2.34 315.03-2.34Q315.93-2.34 316.72-2.69 317.52-3.03 318.1-3.61 318.69-4.2 319.03-4.99 319.37-5.79 319.37-6.69L319.37-6.69 319.37-25 322.37-25 322.37 0ZM345.08-6.86L345.08-6.86Q345.08-5.35 344.5-4 343.93-2.66 342.93-1.66 341.93-0.66 340.59-0.09 339.24 0.49 337.73 0.49L337.73 0.49 336.97 0.49Q335.29 0.49 333.85-0.2 332.41-0.88 331.38-2.1L331.38-2.1 331.38 10.01 328.38 10.01 328.38-25 329.38-25 331.01-22.46Q332.04-23.85 333.59-24.67 335.14-25.49 336.97-25.49L336.97-25.49 337.73-25.49Q339.24-25.49 340.59-24.91 341.93-24.34 342.93-23.34 343.93-22.34 344.5-21 345.08-19.65 345.08-18.14L345.08-18.14 345.08-6.86ZM342.07-6.69L342.07-18.31Q342.07-19.21 341.73-20.01 341.39-20.8 340.8-21.39 340.22-21.97 339.43-22.31 338.63-22.66 337.73-22.66L337.73-22.66 335.73-22.66Q334.82-22.66 334.03-22.31 333.24-21.97 332.65-21.39 332.06-20.8 331.72-20.01 331.38-19.21 331.38-18.31L331.38-18.31 331.38-6.69Q331.38-5.79 331.72-4.99 332.06-4.2 332.65-3.61 333.24-3.03 334.03-2.69 334.82-2.34 335.73-2.34L335.73-2.34 337.73-2.34Q338.63-2.34 339.43-2.69 340.22-3.03 340.8-3.61 341.39-4.2 341.73-4.99 342.07-5.79 342.07-6.69L342.07-6.69Z" opacity="1" transform="matrix(1,0,0,1,0,0)" fill="#c8c8c8" class="slogan-text-1" data-fill-palette-color="quaternary" id="text-1"></path></svg></g></svg></g></svg></g></svg></g></svg></g></svg></g></svg></g></svg></g><defs></defs></svg><rect width="342.85155851775386" height="342.85155851775386" fill="none" stroke="none" visibility="hidden"></rect></g></svg></g></svg>